<?xml version="1.0" encoding="UTF-8"?>
<svg version="1.1" xmlns="http://www.w3.org/2000/svg" width="1024" height="1024">
<path d="M0 0 C337.92 0 675.84 0 1024 0 C1024 337.92 1024 675.84 1024 1024 C686.08 1024 348.16 1024 0 1024 C0 686.08 0 348.16 0 0 Z " fill="#FEFEFE" transform="translate(0,0)"/>
<path d="M0 0 C1.25288864 43.29426293 -8.8227216 84.49741416 -26 124 C-26.55155762 125.27109619 -26.55155762 125.27109619 -27.11425781 126.56787109 C-51.56443523 182.23129034 -93.01605857 216.31011034 -148 240 C-116.2922337 235.98976557 -85.80375421 229.46658567 -55 221 C-55.81294729 225.62169182 -57.49069095 229.38375678 -59.6875 233.5 C-60.07760254 234.2319458 -60.46770508 234.9638916 -60.86962891 235.71801758 C-70.74583044 253.78908338 -83.02783098 270.63980402 -96.96484375 285.78125 C-98.7954442 287.77699099 -100.55836483 289.81230611 -102.3125 291.875 C-110.43834062 301.1643559 -119.29717455 309.38701387 -129 317 C-129.89074219 317.75410156 -130.78148437 318.50820313 -131.69921875 319.28515625 C-162.67736315 344.72114932 -204.09435816 359.0403296 -242.69775391 367.74560547 C-246.44993723 368.57264527 -246.44993723 368.57264527 -250 370 C-238.68206157 373.14387179 -227.44694725 373.1864342 -215.77929688 373.18530273 C-213.26935704 373.18748318 -210.75986215 373.20567723 -208.25 373.22460938 C-199.68579883 373.25345539 -191.52248025 372.91953274 -183.06933594 371.4309082 C-179.68000188 370.95507503 -176.41818694 370.93211921 -173 371 C-184.03226772 384.22457734 -196.39634598 396.60870655 -210.32714844 406.76708984 C-212.02671316 408.0196879 -213.689871 409.31096542 -215.3515625 410.61328125 C-240.55221654 430.09021682 -270.39858081 444.18641729 -300.5625 454.0625 C-301.34613922 454.32112823 -302.12977844 454.57975647 -302.93716431 454.84622192 C-315.83459202 459.09573908 -328.75092223 462.98884596 -342 466 C-342.90427734 466.21172852 -343.80855469 466.42345703 -344.74023438 466.64160156 C-359.01394077 469.93438769 -373.41802898 471.97896859 -387.9375 473.8125 C-388.80929901 473.92377228 -389.68109802 474.03504456 -390.57931519 474.14968872 C-399.41655568 475.26652121 -408.07400275 476.32042041 -417 476 C-406.22789469 434.93134851 -378.82017751 397.7877804 -354 364 C-352.87051819 362.44442816 -351.74158886 360.88845499 -350.61328125 359.33203125 C-344.00936253 350.2705191 -337.21898489 341.42722018 -330.08984375 332.7734375 C-327.12160461 329.1678918 -324.24128909 325.49926626 -321.375 321.8125 C-317.36310215 316.66628362 -313.22517713 311.64764311 -308.98608398 306.68725586 C-306.08361529 303.29057321 -303.24387385 299.85214159 -300.4375 296.375 C-296.61213895 291.67001048 -292.57077348 287.20631017 -288.46484375 282.74609375 C-286.07292703 280.08124834 -283.80745116 277.35168175 -281.5625 274.5625 C-277.42188033 269.43252873 -273.0273268 264.595352 -268.55078125 259.76171875 C-264.30913083 255.16930398 -260.22606018 250.4508361 -256.1875 245.6796875 C-251.27700694 239.89093278 -246.39253665 234.19928874 -240.92333984 228.9230957 C-239.0958036 227.09579144 -237.4021454 225.21378083 -235.71875 223.25390625 C-232.17953969 219.17882134 -228.51946342 215.23475697 -224.8125 211.3125 C-220.18442217 206.39659502 -215.57040145 201.46959039 -211 196.5 C-203.41330684 188.25782474 -195.73321028 180.10328134 -188.06347656 171.93847656 C-172.20659221 155.26117576 -172.20659221 155.26117576 -157 138 C-165.00618578 143.07058433 -172.50126308 148.81267629 -180.05029297 154.52783203 C-181.81113836 155.85739598 -183.57732602 157.1791996 -185.34765625 158.49609375 C-194.3810179 165.2215772 -203.1092397 172.11246469 -211.42578125 179.7109375 C-214.09455453 182.08408036 -216.84024325 184.32701251 -219.625 186.5625 C-223.62428295 189.79680056 -227.31601589 193.15270996 -230.85546875 196.8828125 C-233.42857017 199.4231057 -236.14538032 201.76503157 -238.87475586 204.13525391 C-242.21092897 207.06250149 -245.45230272 210.08702649 -248.6875 213.125 C-249.37303955 213.76735596 -250.0585791 214.40971191 -250.76489258 215.0715332 C-255.86521002 219.87443539 -260.85496471 224.77637454 -265.75073242 229.78759766 C-267.88974194 231.96366311 -270.00360593 234.00276977 -272.42578125 235.86328125 C-275.33792778 238.28049545 -277.63102181 240.95874302 -280.0859375 243.828125 C-284.04919215 248.32520579 -288.40908975 252.44649423 -292.68359375 256.64453125 C-296.75422188 260.67099343 -300.6395664 264.77995723 -304.37402344 269.12011719 C-306.80780949 271.93395391 -309.340381 274.65223641 -311.875 277.375 C-312.92096527 278.50484524 -313.96653473 279.63505701 -315.01171875 280.765625 C-315.51880371 281.31412109 -316.02588867 281.86261719 -316.54833984 282.42773438 C-322.54646633 288.92419158 -328.31615831 295.53625801 -333.87890625 302.41015625 C-335.73087657 304.67140178 -337.622898 306.87659933 -339.5625 309.0625 C-343.54590121 313.57459061 -347.27310503 318.27530159 -351 323 C-351.78890625 323.99386719 -352.5778125 324.98773438 -353.390625 326.01171875 C-356.27957546 329.65961205 -359.14386243 333.32637539 -362 337 C-362.6094043 337.78342773 -363.21880859 338.56685547 -363.84667969 339.37402344 C-373.34961757 351.62594086 -382.46884143 364.05105707 -391 377 C-391.56960449 377.86206055 -392.13920898 378.72412109 -392.72607422 379.61230469 C-413.12960421 410.64818451 -429.44767798 443.36339466 -440 479 C-440.24572754 479.81984375 -440.49145508 480.6396875 -440.74462891 481.484375 C-443.06992651 489.53023506 -444.07858398 497.52163806 -444.765625 505.84765625 C-444.91044503 507.47644651 -445.05579672 509.10518957 -445.20166016 510.73388672 C-445.49216427 513.98834926 -445.71623146 517.23865141 -445.90380859 520.50048828 C-446.71155086 531.43659053 -446.71155086 531.43659053 -449.97802734 535.40014648 C-452.56230473 537.25357155 -455.13388845 538.62637859 -458 540 C-459.84768474 541.09713475 -461.68876297 542.20546367 -463.5234375 543.32421875 C-465.47169311 544.44924444 -467.4222989 545.57020813 -469.375 546.6875 C-471.50572536 547.91967929 -473.63592613 549.15276612 -475.765625 550.38671875 C-476.81814453 550.99563965 -477.87066406 551.60456055 -478.95507812 552.23193359 C-507.57252783 568.69418361 -507.57252783 568.69418361 -534.34375 587.9140625 C-537.14606338 590.11470271 -540.01404691 592.05913049 -543 594 C-541.29591028 577.20254415 -534.45953153 561.34578232 -527.390625 546.1875 C-525.22565188 541.54264858 -523.21200228 536.84254693 -521.21313477 532.12426758 C-517.04725832 522.32947483 -512.66153497 513.03058654 -507 504 C-506.50516113 503.20303711 -506.01032227 502.40607422 -505.50048828 501.58496094 C-499.34277754 491.69260318 -493.02634288 481.90338202 -486.5 472.25 C-485.97857422 471.46915039 -485.45714844 470.68830078 -484.91992188 469.88378906 C-482.21988176 465.92295911 -479.43318289 462.29266878 -476.14453125 458.80078125 C-465.04708178 446.74484572 -464.27713058 436.43122798 -464.08642578 420.37695312 C-463.96244006 415.53240382 -463.43071691 410.79445958 -462.75 406 C-462.62705566 405.13149414 -462.50411133 404.26298828 -462.37744141 403.36816406 C-453.39469995 343.88052762 -430.40228781 286.33478978 -396 237 C-395.52320801 236.30825684 -395.04641602 235.61651367 -394.55517578 234.90380859 C-389.00065648 226.84770366 -383.36602784 218.95902686 -377.06640625 211.46484375 C-375.04925045 209.05874676 -373.11717753 206.60148553 -371.1875 204.125 C-366.99042947 198.85347942 -362.42199342 193.96211289 -357.82421875 189.04296875 C-355.57764021 186.6361852 -353.39493938 184.185839 -351.25 181.6875 C-345.34936739 174.88677089 -338.83397472 168.84321727 -332 163 C-330.96962384 162.10596206 -329.93971256 161.21138818 -328.91015625 160.31640625 C-304.44536489 139.11171345 -278.37084688 120.27349362 -251 103 C-250.06333496 102.40848145 -249.12666992 101.81696289 -248.16162109 101.20751953 C-213.31158687 79.28635245 -176.98021468 59.93232626 -139 44 C-137.97551758 43.56558594 -136.95103516 43.13117188 -135.89550781 42.68359375 C-34.94196429 0 -34.94196429 0 0 0 Z " fill="#5873FE" transform="translate(802,186)"/>
<path d="M0 0 C1.27848834 -0.00297112 2.55697667 -0.00594224 3.87420708 -0.0090034 C7.41164339 -0.01704081 10.94905936 -0.01886114 14.48650372 -0.01960087 C18.30593412 -0.02145703 22.1253541 -0.02900698 25.94477844 -0.03573608 C34.28967482 -0.04929486 42.63456637 -0.05533976 50.97947192 -0.05974674 C56.19130285 -0.06251227 61.40313194 -0.06675009 66.61496162 -0.07125092 C81.05003334 -0.08343839 95.48510358 -0.09374002 109.92018032 -0.09712601 C110.8432843 -0.09734557 111.76638828 -0.09756514 112.71746511 -0.09779136 C113.64274345 -0.09800964 114.5680218 -0.09822791 115.52133888 -0.09845281 C117.3962297 -0.09889627 119.27112053 -0.09934283 121.14601135 -0.09979248 C122.07601678 -0.10001391 123.00602221 -0.10023534 123.96420962 -0.10046348 C139.04155534 -0.10441353 154.11885279 -0.12187621 169.19617986 -0.145152 C184.68213196 -0.16886547 200.16805983 -0.18132779 215.65403038 -0.18249393 C224.34643153 -0.18341047 233.0387697 -0.18915812 241.73115349 -0.20731354 C249.13048781 -0.22271416 256.52973968 -0.22783506 263.92908698 -0.21957543 C267.70326048 -0.21566933 271.47726792 -0.21659663 275.25142097 -0.23063278 C279.34497998 -0.24571759 283.43816493 -0.23750448 287.53173828 -0.22705078 C289.31642215 -0.23913539 289.31642215 -0.23913539 291.13716024 -0.25146413 C298.27681785 -0.20876641 304.47012535 0.19758849 310.35279846 4.68341064 C314.36488472 9.56516878 316.68211032 13.99210943 316.13404846 20.43731689 C315.21779938 25.40172099 313.71897642 29.3048244 310.32936096 33.14044189 C302.87164205 38.18128697 295.23244313 37.69106383 286.56141663 37.62145996 C284.9458373 37.62320544 283.33025907 37.62670993 281.71468687 37.63181663 C277.28600203 37.640745 272.8577054 37.62478247 268.42907 37.60470438 C263.64934351 37.58741291 258.8696385 37.59327728 254.08988953 37.59631348 C245.81224389 37.59840976 237.53472448 37.58587141 229.2571106 37.56336212 C217.28912634 37.53083882 205.32120305 37.52043476 193.3531794 37.51541016 C173.9353746 37.50665803 154.51763706 37.48004466 135.09986877 37.44219971 C116.23854407 37.40547751 97.37723764 37.37716675 78.5158844 37.36016846 C77.35305791 37.35911756 76.19023142 37.35806667 74.99216777 37.35698393 C69.15854517 37.35176374 63.32492244 37.34670892 57.49129963 37.34173632 C9.10394026 37.30027685 -39.28334611 37.22983062 -87.67063904 37.14044189 C-64.72764657 14.06012295 -32.52341417 -0.02364135 0 0 Z " fill="#7360FE" transform="translate(412.67063903808594,748.8595581054688)"/>
<path d="M0 0 C-3 2 -3 2 -7 2 C-7.33 2.66 -7.66 3.32 -8 4 C-10.22975091 4.58370443 -12.48598609 5.06786457 -14.75 5.5 C-19.75567445 6.44876181 -19.75567445 6.44876181 -24.578125 8.03125 C-27 9 -27 9 -29.92578125 9.47265625 C-33.28515219 10.04891429 -36.04694296 11.12275749 -39.1875 12.4375 C-44.27300982 14.45666147 -49.02410352 15.70132694 -54.4140625 16.5390625 C-58.38433115 17.24675389 -62.33466291 18.29519205 -66 20 C-66.33 20.66 -66.66 21.32 -67 22 C-69.16262358 22.72478701 -71.35723768 23.3551985 -73.5625 23.9375 C-78.12904519 25.1783778 -82.60401788 26.47991264 -87.0078125 28.21875 C-89.50768386 29.19909171 -92.03421775 30.09557383 -94.5625 31 C-98.77759881 32.52855232 -102.88951113 34.20633213 -107 36 C-117.32895428 40.40304782 -117.32895428 40.40304782 -123 41 C-123 41.66 -123 42.32 -123 43 C-135.11069559 47.93044129 -135.11069559 47.93044129 -139 49 C-139.66 48.67 -140.32 48.34 -141 48 C-121.30642353 37.33416284 -99.97695273 29.89026781 -79 22.1875 C-78.14707367 21.87321045 -77.29414734 21.5589209 -76.41537476 21.23510742 C-59.94445578 15.17886166 -43.3485126 9.72999775 -26.375 5.25 C-25.29605469 4.95996094 -24.21710938 4.66992188 -23.10546875 4.37109375 C-5.41030961 -0.34905223 -5.41030961 -0.34905223 0 0 Z " fill="#2679FE" transform="translate(785,191)"/>
<path d="M0 0 C0.66 0.33 1.32 0.66 2 1 C0.88625 1.6496875 0.88625 1.6496875 -0.25 2.3125 C-2.91993207 3.86223298 -2.91993207 3.86223298 -4.8125 5.5 C-7.33220802 7.22779978 -9.93533949 8.04834012 -12.80078125 9.0546875 C-15.23598775 10.10143701 -17.20950157 11.41206924 -19.375 12.9375 C-23.89865507 16.08439048 -28.66405629 18.53740673 -34 20 C-34.66 19.67 -35.32 19.34 -36 19 C-27.57992928 13.98531625 -18.99220113 9.36561802 -10.25 4.9375 C-9.27337402 4.43629639 -8.29674805 3.93509277 -7.29052734 3.41870117 C-6.37480957 2.95955322 -5.4590918 2.50040527 -4.515625 2.02734375 C-3.28247559 1.40460571 -3.28247559 1.40460571 -2.02441406 0.76928711 C-1.35635742 0.51542236 -0.68830078 0.26155762 0 0 Z " fill="#1F74FE" transform="translate(628,246)"/>
<path d="M0 0 C-4.11619836 4.91935902 -8.40410362 9.52647956 -13 14 C-13 11 -13 11 -11.25 8.95703125 C-10.5075 8.24933594 -9.765 7.54164063 -9 6.8125 C-8.2575 6.09707031 -7.515 5.38164063 -6.75 4.64453125 C-6.1725 4.10183594 -5.595 3.55914063 -5 3 C-6.10794922 3.10828125 -6.10794922 3.10828125 -7.23828125 3.21875 C-14.18313352 3.85411133 -21.02781245 4.12352301 -28 4 C-28 3.67 -28 3.34 -28 3 C-24.64703509 2.49171557 -21.29246657 1.99488543 -17.9375 1.5 C-16.52307617 1.28537109 -16.52307617 1.28537109 -15.08007812 1.06640625 C-9.99267758 0.32190861 -5.1412006 -0.17113566 0 0 Z " fill="#574DFE" transform="translate(629,557)"/>
<path d="M0 0 C0.66 0.33 1.32 0.66 2 1 C-0.17194513 3.28054239 -2.45483 5.14896727 -5 7 C-5.70125 7.556875 -6.4025 8.11375 -7.125 8.6875 C-9 10 -9 10 -11 10 C-11.78375 10.639375 -12.5675 11.27875 -13.375 11.9375 C-15.78159357 13.82839495 -17.04778166 14.56263432 -20 15 C-18.87266814 11.61800441 -18.41657491 11.3482338 -15.5078125 9.58984375 C-14.80269531 9.15736328 -14.09757813 8.72488281 -13.37109375 8.27929688 C-12.62988281 7.83650391 -11.88867188 7.39371094 -11.125 6.9375 C-9.66916713 6.05095152 -8.21343418 5.16423893 -6.7578125 4.27734375 C-6.1095752 3.88796631 -5.46133789 3.49858887 -4.79345703 3.09741211 C-3.17076523 2.10449084 -1.58286965 1.05524643 0 0 Z " fill="#2577FE" transform="translate(551,289)"/>
<path d="M0 0 C-3.28893003 1.50605402 -6.58157446 3.00380532 -9.875 4.5 C-10.81214844 4.92925781 -11.74929688 5.35851562 -12.71484375 5.80078125 C-13.61074219 6.20683594 -14.50664063 6.61289062 -15.4296875 7.03125 C-16.25710449 7.40830078 -17.08452148 7.78535156 -17.93701172 8.17382812 C-20 9 -20 9 -22 9 C-22 8.34 -22 7.68 -22 7 C-19.61678994 5.2977071 -17.64063645 4.1245682 -14.75 3.5625 C-11.22841893 2.8421766 -8.29653093 1.33104773 -5.0859375 -0.2578125 C-3 -1 -3 -1 0 0 Z " fill="#6255FE" transform="translate(539,625)"/>
<path d="M0 0 C0.9700528 2.58092835 1.14009383 3.65892769 0.07421875 6.25390625 C-0.61220703 7.39666016 -0.61220703 7.39666016 -1.3125 8.5625 C-1.76238281 9.32691406 -2.21226562 10.09132813 -2.67578125 10.87890625 C-3.75354407 12.60523431 -4.87110929 14.30666393 -6 16 C-6.66 16 -7.32 16 -8 16 C-6.42986223 10.03347646 -3.24970218 5.17090975 0 0 Z " fill="#386CFE" transform="translate(391,447)"/>
<path d="M0 0 C0.66 0.33 1.32 0.66 2 1 C1.55269531 1.42410156 1.10539062 1.84820312 0.64453125 2.28515625 C-2.47851346 5.31497574 -5.27910377 8.23982694 -7.6875 11.875 C-10.07498929 15.10133687 -10.3533653 15.4011842 -14 16 C-10.36558725 9.72237798 -5.18706746 5.00888576 0 0 Z " fill="#2C6FFE" transform="translate(460,358)"/>
<path d="M0 0 C2 1 2 1 2 1 Z M-3 0 C-2.01 0.66 -1.02 1.32 0 2 C-5.57765673 4.94033413 -10.85326729 7.53012914 -17 9 C-14.48367951 6.14015453 -11.66114447 4.58531178 -8.3125 2.8125 C-7.31863281 2.28269531 -6.32476563 1.75289063 -5.30078125 1.20703125 C-4.54152344 0.80871094 -3.78226563 0.41039062 -3 0 Z " fill="#2A7AFE" transform="translate(609,257)"/>
<path d="M0 0 C0 3 0 3 -1.79296875 4.97265625 C-2.58316406 5.66230469 -3.37335938 6.35195313 -4.1875 7.0625 C-4.96480469 7.75472656 -5.74210937 8.44695312 -6.54296875 9.16015625 C-8.97261164 10.97949139 -11.1417218 12.02016396 -14 13 C-9.99191229 7.69898077 -5.33731159 3.93030788 0 0 Z " fill="#2874FE" transform="translate(494,329)"/>
<path d="M0 0 C5.94 0.99 5.94 0.99 12 2 C9 5 9 5 6.51953125 5.29296875 C5.17955078 5.24076172 5.17955078 5.24076172 3.8125 5.1875 C2.46091797 5.14689453 2.46091797 5.14689453 1.08203125 5.10546875 C0.39496094 5.07066406 -0.29210937 5.03585937 -1 5 C-0.67 3.35 -0.34 1.7 0 0 Z " fill="#6C67FE" transform="translate(386,657)"/>
<path d="M0 0 C0.66 0.33 1.32 0.66 2 1 C-0.75839204 4.68000434 -3.62075382 7.49505889 -7.25 10.3125 C-8.14203125 11.00988281 -9.0340625 11.70726562 -9.953125 12.42578125 C-10.62859375 12.94527344 -11.3040625 13.46476562 -12 14 C-12.66 13.67 -13.32 13.34 -14 13 C-9.51286432 8.4103663 -5.01431776 4.01145421 0 0 Z " fill="#2870FE" transform="translate(477,343)"/>
<path d="M0 0 C1 3 1 3 -0.65234375 6.57421875 C-1.40387723 7.95092168 -2.1660567 9.32185409 -2.9375 10.6875 C-3.51661133 11.7403418 -3.51661133 11.7403418 -4.10742188 12.81445312 C-5.06261773 14.54795672 -6.03015386 16.27465009 -7 18 C-7.33 17.34 -7.66 16.68 -8 16 C-7.10979134 13.93328442 -6.0104582 12.03220683 -4.91015625 10.0703125 C-3.73170055 7.766629 -3.73170055 7.766629 -4 4 C-3.01 4 -2.02 4 -1 4 C-1.33 3.01 -1.66 2.02 -2 1 C-1.34 0.67 -0.68 0.34 0 0 Z " fill="#5656FE" transform="translate(746,407)"/>
<path d="M0 0 C-1 2 -1 2 -2.85546875 2.6328125 C-7.31497489 3.5740148 -11.41164496 4.23530026 -16 4 C-13.45718331 1.45718331 -11.47356329 1.16836595 -8 0.3125 C-6.9275 0.04050781 -5.855 -0.23148438 -4.75 -0.51171875 C-2 -1 -2 -1 0 0 Z " fill="#6257FE" transform="translate(461,650)"/>
<path d="M0 0 C0.33 0.66 0.66 1.32 1 2 C-0.98 4.64 -2.96 7.28 -5 10 C-5.99 9.67 -6.98 9.34 -8 9 C-6.85459775 7.68712379 -5.70866567 6.37470979 -4.5625 5.0625 C-3.92441406 4.33160156 -3.28632812 3.60070312 -2.62890625 2.84765625 C-1.77458541 1.87860647 -0.91348825 0.91348825 0 0 Z " fill="#406FFE" transform="translate(638,332)"/>
<path d="M0 0 C1.32 0.33 2.64 0.66 4 1 C-0.455 4.465 -0.455 4.465 -5 8 C-5.66 7.67 -6.32 7.34 -7 7 C-6.34 6.01 -5.68 5.02 -5 4 C-4.34 4.33 -3.68 4.66 -3 5 C-2.67 4.01 -2.34 3.02 -2 2 C-1.34 1.34 -0.68 0.68 0 0 Z " fill="#3A6CFE" transform="translate(614,342)"/>
<path d="M0 0 C0 0.99 0 1.98 0 3 C-1.65 3.66 -3.3 4.32 -5 5 C-5 5.66 -5 6.32 -5 7 C-6.98 7.66 -8.96 8.32 -11 9 C-7.56638098 5.36440339 -4.2026393 2.63886654 0 0 Z " fill="#2374FE" transform="translate(524,307)"/>
<path d="M0 0 C0.66 0.33 1.32 0.66 2 1 C-0.31 3.64 -2.62 6.28 -5 9 C-5.99 8.01 -6.98 7.02 -8 6 C-5.36 4.02 -2.72 2.04 0 0 Z " fill="#E2E9FD" transform="translate(644,323)"/>
<path d="M0 0 C0.66 0.66 1.32 1.32 2 2 C-0.64 4.64 -3.28 7.28 -6 10 C-6 6.41087588 -5.33563446 5.89142971 -3 3.3125 C-2.443125 2.68988281 -1.88625 2.06726563 -1.3125 1.42578125 C-0.879375 0.95527344 -0.44625 0.48476563 0 0 Z " fill="#525DFE" transform="translate(476,514)"/>
<path d="M0 0 C0.66 0.33 1.32 0.66 2 1 C0.71632558 2.83893824 -0.57716761 4.67102625 -1.875 6.5 C-2.95394531 8.03140625 -2.95394531 8.03140625 -4.0546875 9.59375 C-4.69664062 10.3878125 -5.33859375 11.181875 -6 12 C-6.66 12 -7.32 12 -8 12 C-6.59023295 8.96147295 -4.91129772 6.4060405 -2.875 3.75 C-2.06675781 2.69039063 -2.06675781 2.69039063 -1.2421875 1.609375 C-0.83226562 1.07828125 -0.42234375 0.5471875 0 0 Z " fill="#2C69FE" transform="translate(432,388)"/>
<path d="M0 0 C0.33 0 0.66 0 1 0 C2.0006709 5.96345767 2.0662997 10.28728907 0 16 C-1.16306443 12.45049966 -0.92365049 9.44176052 -0.5625 5.75 C-0.46066406 4.67234375 -0.35882812 3.5946875 -0.25390625 2.484375 C-0.17011719 1.66453125 -0.08632813 0.8446875 0 0 Z " fill="#3B77FE" transform="translate(796,232)"/>
<path d="M0 0 C-1.59766103 0.86627399 -3.20339944 1.71766465 -4.8125 2.5625 C-5.70582031 3.03816406 -6.59914063 3.51382813 -7.51953125 4.00390625 C-10 5 -10 5 -13 4 C-11.40233897 3.13372601 -9.79660056 2.28233535 -8.1875 1.4375 C-7.29417969 0.96183594 -6.40085937 0.48617187 -5.48046875 -0.00390625 C-3 -1 -3 -1 0 0 Z " fill="#1E75FE" transform="translate(657,235)"/>
<path d="M0 0 C0 0.66 0 1.32 0 2 C-1.4117783 2.53394179 -2.82970244 3.05165104 -4.25 3.5625 C-5.03890625 3.85253906 -5.8278125 4.14257812 -6.640625 4.44140625 C-9.19103452 5.04522837 -10.55322229 4.8473932 -13 4 C-12.1028125 3.566875 -12.1028125 3.566875 -11.1875 3.125 C-4.70454545 -0.20909091 -4.70454545 -0.20909091 0 0 Z " fill="#3381FE" transform="translate(718,211)"/>
<path d="M0 0 C0.99 0 1.98 0 3 0 C2.67 2.97 2.34 5.94 2 9 C1.01 9 0.02 9 -1 9 C-0.67 6.03 -0.34 3.06 0 0 Z " fill="#6A74FE" transform="translate(342,575)"/>
<path d="M0 0 C0 0.99 0 1.98 0 3 C-1.75 4.60546875 -1.75 4.60546875 -4 6.1875 C-4.7425 6.71730469 -5.485 7.24710937 -6.25 7.79296875 C-6.8275 8.19128906 -7.405 8.58960938 -8 9 C-8.66 8.67 -9.32 8.34 -10 8 C-6.7 5.36 -3.4 2.72 0 0 Z " fill="#2172FD" transform="translate(511,316)"/>
<path d="M0 0 C0.66 0.33 1.32 0.66 2 1 C-3.78571429 5.82142857 -3.78571429 5.82142857 -7 7 C-7.99 6.67 -8.98 6.34 -10 6 C-8.3811004 4.96951963 -6.75467511 3.95085322 -5.125 2.9375 C-4.22007812 2.36902344 -3.31515625 1.80054688 -2.3828125 1.21484375 C-1.20332031 0.61349609 -1.20332031 0.61349609 0 0 Z " fill="#2176FE" transform="translate(581,271)"/>
<path d="M0 0 C0.66 0.33 1.32 0.66 2 1 C-5.28571429 5.42857143 -5.28571429 5.42857143 -10 6 C-7.31100548 2.67830089 -3.94687492 1.43522725 0 0 Z " fill="#1F75FE" transform="translate(641,240)"/>
<path d="M0 0 C0 4.31618166 -2.13270348 5.92789659 -5 9 C-5.66 9 -6.32 9 -7 9 C-5.44499019 5.18315774 -2.96404505 2.80804268 0 0 Z " fill="#4663FE" transform="translate(573,402)"/>
<path d="M0 0 C0.99 0.33 1.98 0.66 3 1 C2.67 1.66 2.34 2.32 2 3 C1.34 3 0.68 3 0 3 C-0.12375 3.804375 -0.2475 4.60875 -0.375 5.4375 C-0.58125 6.283125 -0.7875 7.12875 -1 8 C-1.99 8.495 -1.99 8.495 -3 9 C-2.44271087 5.65626525 -1.64826111 2.96687001 0 0 Z " fill="#635AFE" transform="translate(277,727)"/>
<path d="M0 0 C-2.71182212 2.60334924 -3.89133813 2.99456691 -7.75 3.1875 C-8.8225 3.125625 -9.895 3.06375 -11 3 C-7.72430636 -0.27569364 -4.48909309 -0.12469703 0 0 Z " fill="#1E6FFE" transform="translate(798,188)"/>
</svg>
